<svg width="18" height="18" viewBox="0 0 18 18" fill="none" xmlns="http://www.w3.org/2000/svg">
<g clip-path="url(#clip0_321_48)">
<path d="M10.8941 16.2529C10.9226 16.3238 10.9721 16.3844 11.036 16.4264C11.0999 16.4684 11.1751 16.4899 11.2515 16.4879C11.3279 16.486 11.402 16.4607 11.4636 16.4154C11.5252 16.3702 11.5716 16.3072 11.5964 16.2349L16.4679 1.99509C16.4919 1.92868 16.4965 1.85681 16.4811 1.7879C16.4657 1.71899 16.431 1.65587 16.3811 1.60595C16.3312 1.55602 16.2681 1.52135 16.1992 1.50598C16.1303 1.49061 16.0584 1.49519 15.992 1.51918L1.7522 6.39068C1.67987 6.41549 1.61686 6.46182 1.57163 6.52347C1.5264 6.58511 1.5011 6.65912 1.49915 6.73556C1.49719 6.81199 1.51866 6.8872 1.56068 6.95108C1.60269 7.01496 1.66325 7.06446 1.73421 7.09293L7.67745 9.47622C7.86533 9.55144 8.03603 9.66393 8.17926 9.80691C8.32249 9.94988 8.43529 10.1204 8.51085 10.3081L10.8941 16.2529Z" stroke="#666D7A" stroke-width="1.49892" stroke-linecap="round" stroke-linejoin="round"/>
<path d="M16.3788 1.60907L8.17969 9.80744" stroke="#666D7A" stroke-width="1.49892" stroke-linecap="round" stroke-linejoin="round"/>
</g>
<defs>
<clipPath id="clip0_321_48">
<rect width="17.9871" height="17.9871" fill="white"/>
</clipPath>
</defs>
</svg>
